<svg width="21" height="13" viewBox="0 0 21 13" fill="none" xmlns="http://www.w3.org/2000/svg">
<path d="M6.59395 1.47428C6.92493 1.14625 6.92731 0.612018 6.59928 0.281047C6.27125 -0.0499252 5.73702 -0.0523087 5.40605 0.275723L3.38697 2.27686C2.62651 3.03054 2.00497 3.64654 1.56419 4.19539C1.10583 4.76613 0.774032 5.34544 0.685398 6.04082C0.646534 6.34572 0.646534 6.65428 0.685398 6.95918C0.774032 7.65456 1.10583 8.23387 1.56419 8.80461C2.00497 9.35347 2.62651 9.96946 3.38698 10.7231L5.40605 12.7243C5.73702 13.0523 6.27125 13.0499 6.59928 12.719C6.92731 12.388 6.92493 11.8538 6.59395 11.5257L4.61061 9.56C3.80568 8.76222 3.25353 8.21318 2.87992 7.74796C2.7585 7.59677 2.66377 7.46367 2.59021 7.34375H19.5C19.966 7.34375 20.3438 6.96599 20.3438 6.5C20.3438 6.03401 19.966 5.65625 19.5 5.65625H2.59021C2.66377 5.53633 2.7585 5.40323 2.87992 5.25204C3.25353 4.78682 3.80568 4.23778 4.61061 3.44L6.59395 1.47428Z" fill="#0D0048"/>
</svg>
