<svg width="24" height="24" viewBox="0 0 24 24" fill="none" xmlns="http://www.w3.org/2000/svg">
<path d="M9.94204 17.4069C7.75304 17.0209 6.85218 15.7339 7.23818 13.5449L8.5812 5.92889L8.57705 5.92285L4.78823 6.5899C2.59923 6.9789 1.69903 8.26785 2.08803 10.4568L3.6332 19.2129C4.0112 21.4019 5.30016 22.3018 7.48916 21.9128L14.0561 20.7568C15.5891 20.4788 16.5013 19.7569 16.7453 18.6009L16.7382 18.5889C16.6602 18.5779 16.5902 18.5779 16.5092 18.5639L9.94204 17.4069Z" fill="#5B7E9A"/>
<path opacity="0.4" d="M19.2091 3.24387L12.6432 2.08585C10.4552 1.69985 9.16717 2.60083 8.78117 4.78983L8.58024 5.92783L7.23722 13.5439C6.85122 15.7329 7.75208 17.0199 9.94108 17.4059L16.5063 18.5639C16.5873 18.5779 16.6573 18.5778 16.7353 18.5888C18.7793 18.8698 19.9961 17.9678 20.3681 15.8598L21.9123 7.10587C22.2993 4.91787 21.3981 3.62987 19.2091 3.24387Z" fill="#5B7E9A"/>
<path d="M17.8592 11.6539C17.8162 11.6539 17.7724 11.6509 17.7284 11.6429L11.1634 10.4849C10.7554 10.4129 10.4823 10.024 10.5553 9.61595C10.6263 9.20795 11.0194 8.93592 11.4234 9.00792L17.9884 10.1659C18.3964 10.2379 18.6693 10.6269 18.5963 11.0349C18.5333 11.3979 18.2172 11.6539 17.8592 11.6539ZM19.2974 7.77293C19.3694 7.36493 19.0973 6.97592 18.6893 6.90392L12.1243 5.7459C11.7203 5.6739 11.3274 5.94693 11.2564 6.35393C11.1844 6.76193 11.4563 7.15095 11.8643 7.22295L18.4293 8.38091C18.4733 8.38891 18.5174 8.39195 18.5604 8.39195C18.9174 8.39295 19.2334 8.13693 19.2974 7.77293ZM15.5543 13.8959C15.6263 13.4879 15.3544 13.0989 14.9464 13.0269L10.8424 12.3029C10.4364 12.2299 10.0454 12.5039 9.97445 12.9109C9.90245 13.3189 10.1744 13.708 10.5824 13.78L14.6864 14.504C14.7304 14.512 14.7742 14.5149 14.8172 14.5149C15.1742 14.5159 15.4903 14.2599 15.5543 13.8959Z" fill="#5B7E9A"/>
</svg>
