<svg width="19" height="19" viewBox="0 0 19 19" fill="none" xmlns="http://www.w3.org/2000/svg">
<path d="M18.4059 5.94071C18.334 4.46214 17.9952 3.14786 16.917 2.06973C15.8389 0.991606 14.5246 0.652769 13.0461 0.580894C11.5162 0.498751 6.94694 0.498751 5.4273 0.580894C3.94872 0.652769 2.64471 0.991606 1.55632 2.06973C0.467926 3.14786 0.139342 4.46214 0.0674666 5.94071C-0.0146764 7.47062 -0.0146764 12.0398 0.0674666 13.5697C0.139342 15.0483 0.478194 16.3626 1.55632 17.4407C2.64471 18.5189 3.94872 18.8577 5.4273 18.9296C6.95721 19.0117 11.5264 19.0117 13.0461 18.9296C14.5246 18.8577 15.8389 18.5189 16.917 17.4407C17.9952 16.3626 18.334 15.0483 18.4059 13.5697C18.488 12.0398 18.488 7.47063 18.4059 5.95099V5.94071ZM9.22642 14.6273C6.53624 14.6273 4.34918 12.4403 4.34918 9.7501C4.34918 7.05991 6.53624 4.87286 9.22642 4.87286C11.9166 4.87286 14.1037 7.05991 14.1037 9.7501C14.1037 12.4403 11.9166 14.6273 9.22642 14.6273ZM14.8943 5.12955C14.3295 5.12955 13.8675 4.6675 13.8675 4.10277C13.8675 3.53803 14.3193 3.07598 14.8943 3.07598C15.459 3.07598 15.9211 3.53803 15.9211 4.10277C15.9211 4.6675 15.459 5.12955 14.8943 5.12955ZM12.5635 9.7501C12.5635 11.588 11.0644 13.0872 9.22642 13.0872C7.38847 13.0872 5.88936 11.588 5.88936 9.7501C5.88936 7.91215 7.38847 6.41304 9.22642 6.41304C11.0644 6.41304 12.5635 7.91215 12.5635 9.7501Z" fill="#505150"/>
</svg>
