<svg width="19" height="16" viewBox="0 0 19 16" fill="none" xmlns="http://www.w3.org/2000/svg">
<path d="M1.71057 7.1958C6.66995 5.01901 9.97622 3.59177 11.6396 2.89356C16.3628 0.911856 17.3485 0.573012 17.9852 0.562744C18.1289 0.562744 18.437 0.59355 18.6423 0.757836C18.8169 0.901586 18.8579 1.0864 18.8887 1.21989C18.9093 1.35337 18.9401 1.66141 18.9195 1.89757C18.6628 4.60829 17.5539 11.1695 16.9892 14.1985C16.753 15.482 16.2807 15.9132 15.8289 15.9543C14.8432 16.0467 14.0936 15.2971 13.1284 14.6708C11.6293 13.6851 10.7874 13.069 9.32934 12.1038C7.64541 10.9949 8.73379 10.3788 9.69897 9.38284C9.9454 9.12615 14.3093 5.14222 14.3914 4.77258C14.4017 4.73151 14.4119 4.55694 14.3093 4.4748C14.2066 4.38239 14.0628 4.41319 13.9602 4.444C13.8061 4.4748 11.4137 6.06632 6.7829 9.21855C6.10522 9.69087 5.48916 9.91678 4.9347 9.90651C4.32889 9.89625 3.15834 9.55741 2.28557 9.28017C1.21771 8.93107 0.375767 8.74624 0.447642 8.1507C0.488714 7.84266 0.909676 7.52436 1.71057 7.20606V7.1958Z" fill="#505150"/>
</svg>
