<svg width="21" height="15" viewBox="0 0 21 15" fill="none" xmlns="http://www.w3.org/2000/svg">
<path d="M19.622 2.56154C19.3961 1.7169 18.7282 1.04904 17.8836 0.823143C16.3514 0.410643 10.213 0.410645 10.213 0.410645C10.213 0.410645 4.07464 0.410643 2.5425 0.823143C1.69786 1.04904 1.03001 1.7169 0.804115 2.56154C0.391615 4.09369 0.391602 7.29547 0.391602 7.29547C0.391602 7.29547 0.391615 10.4973 0.804115 12.0294C1.03001 12.8741 1.69786 13.5125 2.5425 13.7383C4.07464 14.1508 10.213 14.1508 10.213 14.1508C10.213 14.1508 16.3514 14.1508 17.8836 13.7383C18.7282 13.5125 19.3961 12.8741 19.622 12.0294C20.0345 10.4973 20.0345 7.29547 20.0345 7.29547C20.0345 7.29547 20.0345 4.09369 19.622 2.56154ZM8.24875 10.2321V4.33922L13.1595 7.28565L8.24875 10.2321Z" fill="#505150"/>
</svg>
