<svg width="19" height="19" viewBox="0 0 19 19" fill="none" xmlns="http://www.w3.org/2000/svg">
<path d="M9.2143 0.446533C4.33304 0.446533 0.375 4.40457 0.375 9.28583C0.375 10.926 0.826796 12.468 1.61251 13.7939L0.375 18.1251L4.70623 16.8876C6.03212 17.6733 7.57412 18.1251 9.2143 18.1251C14.0956 18.1251 18.0536 14.1671 18.0536 9.28583C18.0536 4.40457 14.0956 0.446533 9.2143 0.446533ZM13.9482 12.6644C13.742 13.2439 12.7598 13.7742 12.3178 13.8233C11.8759 13.8724 11.4634 14.0296 9.42057 13.2242C6.96521 12.2421 5.40358 9.70816 5.28572 9.55101C5.16786 9.39387 4.30358 8.23494 4.30358 7.03673C4.30358 5.83851 4.92231 5.25904 5.14821 5.00368C5.3741 4.75815 5.63931 4.69922 5.79645 4.69922C5.96342 4.69922 6.12054 4.69921 6.26786 4.70904C6.43483 4.70904 6.63125 4.70903 6.80803 5.12153C7.0241 5.60278 7.48571 6.80101 7.54464 6.90904C7.60357 7.0269 7.64287 7.17422 7.5643 7.33136C7.47591 7.4885 7.43662 7.59654 7.31877 7.73404C7.20091 7.87154 7.06341 8.04833 6.95538 8.15637C6.8277 8.27423 6.70986 8.40191 6.84736 8.64744C6.99468 8.88316 7.47592 9.68851 8.19289 10.3269C9.1161 11.1617 9.89198 11.4171 10.1375 11.5349C10.3732 11.6528 10.5205 11.6332 10.658 11.476C10.8053 11.3189 11.267 10.7689 11.4241 10.5233C11.5813 10.2876 11.7384 10.3269 11.9643 10.4055C12.1902 10.484 13.3687 11.0832 13.6143 11.201C13.85 11.3287 14.017 11.3876 14.0759 11.4858C14.1349 11.5841 14.1348 12.0751 13.9384 12.6448L13.9482 12.6644Z" fill="#505150"/>
</svg>
