<svg width="24" height="24" viewBox="0 0 24 24" fill="none" xmlns="http://www.w3.org/2000/svg">
<path d="M14.164 19.751C14.075 19.596 13.91 19.5 13.73 19.5H10.27C10.091 19.5 9.92604 19.596 9.83604 19.751C9.74604 19.906 9.74804 20.098 9.83804 20.252C10.294 21.033 11.102 21.5 12 21.5C12.898 21.5 13.706 21.033 14.162 20.252C14.252 20.098 14.253 19.906 14.164 19.751Z" fill="#5B7E9A"/>
<path opacity="0.4" d="M20.3913 17.688C20.3723 17.665 18.4953 15.282 18.4953 12.5V8.995C18.4953 5.414 15.5813 2.5 12.0003 2.5C8.41929 2.5 5.50529 5.414 5.50529 8.995V12.5C5.50529 15.281 3.6293 17.664 3.6093 17.688C3.4893 17.838 3.4663 18.044 3.5493 18.217C3.6323 18.39 3.80729 18.5 3.99929 18.5H19.9993C20.1913 18.5 20.3663 18.39 20.4493 18.217C20.5343 18.043 20.5103 17.838 20.3913 17.688Z" fill="#5B7E9A"/>
</svg>
