<svg width="18" height="18" viewBox="0 0 18 18" fill="none" xmlns="http://www.w3.org/2000/svg">
<path d="M17.7359 16.7642L14.2149 13.2432C15.3919 11.8472 16.1042 10.0478 16.1042 8.08333C16.1042 3.66042 12.5063 0.0625 8.08333 0.0625C3.66042 0.0625 0.0625 3.66042 0.0625 8.08333C0.0625 12.5063 3.66042 16.1042 8.08333 16.1042C10.0478 16.1042 11.8472 15.3919 13.2433 14.2149L16.7641 17.7358C16.898 17.8697 17.074 17.9375 17.25 17.9375C17.426 17.9375 17.602 17.8706 17.7359 17.7358C18.0044 17.4682 18.0044 17.0328 17.7359 16.7642ZM1.4375 8.08333C1.4375 4.4185 4.4185 1.4375 8.08333 1.4375C11.7482 1.4375 14.7292 4.4185 14.7292 8.08333C14.7292 11.7482 11.7482 14.7292 8.08333 14.7292C4.4185 14.7292 1.4375 11.7482 1.4375 8.08333Z" fill="#0D0048"/>
</svg>
