<svg width="16" height="18" viewBox="0 0 16 18" fill="none" xmlns="http://www.w3.org/2000/svg">
<path d="M8.00795 7.85417C5.85929 7.85417 4.11212 6.10608 4.11212 3.95833C4.11212 1.81058 5.85929 0.0625 8.00795 0.0625C10.1566 0.0625 11.9038 1.81058 11.9038 3.95833C11.9038 6.10608 10.1566 7.85417 8.00795 7.85417ZM8.00795 1.4375C6.61737 1.4375 5.48712 2.56775 5.48712 3.95833C5.48712 5.34892 6.61737 6.47917 8.00795 6.47917C9.39854 6.47917 10.5288 5.34892 10.5288 3.95833C10.5288 2.56775 9.39762 1.4375 8.00795 1.4375ZM11.6635 17.9375H4.33581C2.11747 17.9375 0.895508 16.723 0.895508 14.5175C0.895508 12.0782 2.27601 9.22917 6.16634 9.22917H9.83301C13.7233 9.22917 15.1038 12.0773 15.1038 14.5175C15.1038 16.723 13.8819 17.9375 11.6635 17.9375ZM6.16634 10.6042C2.55192 10.6042 2.27051 13.599 2.27051 14.5175C2.27051 15.9511 2.88839 16.5625 4.33581 16.5625H11.6635C13.111 16.5625 13.7288 15.9511 13.7288 14.5175C13.7288 13.5999 13.4474 10.6042 9.83301 10.6042H6.16634Z" fill="#0D0048"/>
</svg>
